# xmcd CD database file
#
# Track frame offsets:
#	182
#	10357
#	20875
#	33097
#	44882
#	58325
#	71092
#	83432
#	93335
#	102620
#	113300
#	127840
#	139292
#	150487
#	159457
#	170117
#	181122
#	192262
#	202077
#	211915
#	221337
#	232260
#	243355
#	255342
#	269307
#
# Disc length: 3733 seconds
#
# Revision: 7
# Processed by: cddbd v1.5.2PL0 Copyright (c) Steve Scherf et al.
# Submitted via: CDex 1.51
#
DISCID=640e9319
DTITLE=Astrud Gilberto - The Silver Collection
DYEAR=1966
DGENRE=Jazz
TTITLE0=Once I Loved
TTITLE1=Aqua De Beber
TTITLE2=Meditation
TTITLE3=And Roses and Roses
TTITLE4=O Morro (Nao Tem Vez)
TTITLE5=How Insensitive
TTITLE6=Dindi
TTITLE7=Photograph
TTITLE8=Dreamer
TTITLE9=So Finha De Ser Com Voce
TTITLE10=All That's Left is to Say Goodbye
TTITLE11=The Shadow of Your Smile
TTITLE12=Aruanda
TTITLE13=Manha De Carnaval
TTITLE14=Fly Me to the Moon
TTITLE15=The Gentle Rain
TTITLE16=Non-stop to Brazil
TTITLE17=O Ganso
TTITLE18=Who Can I Turn To? (When Nobody Needs Me)
TTITLE19=Day By Day
TTITLE20=Tristeza
TTITLE21=Funny World
TTITLE22=So Nice (Summer Samba)
TTITLE23=Let Go (Canto De Ossanho)
TTITLE24=Berimbou
EXTD=YEAR: 1966
EXTT0=
EXTT1=
EXTT2=
EXTT3=
EXTT4=
EXTT5=
EXTT6=
EXTT7=
EXTT8=
EXTT9=
EXTT10=
EXTT11=
EXTT12=
EXTT13=
EXTT14=
EXTT15=
EXTT16=
EXTT17=
EXTT18=
EXTT19=
EXTT20=
EXTT21=
EXTT22=
EXTT23=
EXTT24=
PLAYORDER=
